<?xml version="1.0" encoding="UTF-8" standalone="no"?>
<!-- Created with Inkscape (http://www.inkscape.org/) -->

<svg
   xmlns:dc="http://purl.org/dc/elements/1.1/"
   xmlns:cc="http://creativecommons.org/ns#"
   xmlns:rdf="http://www.w3.org/1999/02/22-rdf-syntax-ns#"
   xmlns:svg="http://www.w3.org/2000/svg"
   xmlns="http://www.w3.org/2000/svg"
   xmlns:sodipodi="http://sodipodi.sourceforge.net/DTD/sodipodi-0.dtd"
   xmlns:inkscape="http://www.inkscape.org/namespaces/inkscape"
   width="210mm"
   height="297mm"
   viewBox="0 0 210 297"
   version="1.1"
   id="svg8"
   inkscape:version="0.92.2 5c3e80d, 2017-08-06"
   sodipodi:docname="back4.svg"
   inkscape:export-filename="/home/gurtos/data/Dokumenty/Pomysły/Pony Drinking Game/backn2.png"
   inkscape:export-xdpi="100"
   inkscape:export-ydpi="100">
  <defs
     id="defs2">
    <defs
       id="defmain">
      <g
         id="def51">
        <path
           id="def51:0"
           fill="none"
           stroke="rgb(128, 209, 245)"
           stroke-linecap="butt"
           stroke-linejoin="miter"
           stroke-miterlimit="4"
           stroke-width="14"
           d="m -45 -193 q -31 79 -40 121 q -15 73 40 137 q 109 127 46 192 q -20 20 -44 17 q -26 -3 -33 -31 q -8 -30 9 -45 q 18 -16 45 6" />
        <path
           id="def51:1"
           fill="none"
           stroke="rgb(253, 246, 174)"
           stroke-linecap="butt"
           stroke-linejoin="miter"
           stroke-miterlimit="4"
           stroke-width="14"
           d="m 193 188 q -59 67 -74 127 q -19 78 26 165 q 49 94 43 164 q -7 70 -63 65 q -39 -3 -58 -45 q -18 -41 -1 -82" />
        <path
           id="def51:2"
           fill="none"
           stroke="rgb(253, 246, 174)"
           stroke-linecap="butt"
           stroke-linejoin="miter"
           stroke-miterlimit="4"
           stroke-width="14"
           d="m -205 244 q 52 30 64 75 q 11 37 -2 102 q -16 76 9 135 q 30 71 103 35 q 49 -24 37 -87 q -12 -62 -71 -72" />
        <path
           id="def51:3"
           fill="rgb(253, 246, 174)"
           d="m 6 -529 q 39 48 46 122 q 6 59 -13 108 q -19 48 -54 69 l 32 90 l -110 -24 l 25 -56 q -44 -5 -77 -52 q -33 -47 -40 -113 q -7 -73 23 -128 q 30 -55 79 -60 q 49 -4 89 44" />
        <path
           id="def51:4"
           fill="rgb(128, 209, 245)"
           d="m 126 83 q -12 -56 10 -119 q 23 -70 73 -108 q 50 -38 97 -22 q 47 16 63 77 q 16 60 -8 130 q -19 56 -57 93 q -37 36 -77 40 l 2 90 l -118 -38 l 64 -63 q -38 -23 -49 -80" />
        <path
           id="def51:5"
           fill="rgb(128, 209, 245)"
           d="m -383 36 q -18 -71 3 -130 q 21 -59 68 -72 q 48 -12 95 30 q 46 42 65 113 q 15 57 3 109 q -11 50 -42 76 l 39 67 l -108 49 l 19 -97 q -44 1 -84 -40 q -41 -41 -58 -105" />
      </g>
    </defs>
    <g
       id="g57">
      <path
         id="path45"
         fill="none"
         stroke="rgb(128, 209, 245)"
         stroke-linecap="butt"
         stroke-linejoin="miter"
         stroke-miterlimit="4"
         stroke-width="14"
         d="m -45 -193 q -31 79 -40 121 q -15 73 40 137 q 109 127 46 192 q -20 20 -44 17 q -26 -3 -33 -31 q -8 -30 9 -45 q 18 -16 45 6" />
      <path
         id="path47"
         fill="none"
         stroke="rgb(253, 246, 174)"
         stroke-linecap="butt"
         stroke-linejoin="miter"
         stroke-miterlimit="4"
         stroke-width="14"
         d="m 193 188 q -59 67 -74 127 q -19 78 26 165 q 49 94 43 164 q -7 70 -63 65 q -39 -3 -58 -45 q -18 -41 -1 -82" />
      <path
         id="path49"
         fill="none"
         stroke="rgb(253, 246, 174)"
         stroke-linecap="butt"
         stroke-linejoin="miter"
         stroke-miterlimit="4"
         stroke-width="14"
         d="m -205 244 q 52 30 64 75 q 11 37 -2 102 q -16 76 9 135 q 30 71 103 35 q 49 -24 37 -87 q -12 -62 -71 -72" />
      <path
         id="path51"
         fill="rgb(253, 246, 174)"
         d="m 6 -529 q 39 48 46 122 q 6 59 -13 108 q -19 48 -54 69 l 32 90 l -110 -24 l 25 -56 q -44 -5 -77 -52 q -33 -47 -40 -113 q -7 -73 23 -128 q 30 -55 79 -60 q 49 -4 89 44" />
      <path
         id="path53"
         fill="rgb(128, 209, 245)"
         d="m 126 83 q -12 -56 10 -119 q 23 -70 73 -108 q 50 -38 97 -22 q 47 16 63 77 q 16 60 -8 130 q -19 56 -57 93 q -37 36 -77 40 l 2 90 l -118 -38 l 64 -63 q -38 -23 -49 -80" />
      <path
         id="path55"
         fill="rgb(128, 209, 245)"
         d="m -383 36 q -18 -71 3 -130 q 21 -59 68 -72 q 48 -12 95 30 q 46 42 65 113 q 15 57 3 109 q -11 50 -42 76 l 39 67 l -108 49 l 19 -97 q -44 1 -84 -40 q -41 -41 -58 -105" />
    </g>
  </defs>
  <sodipodi:namedview
     id="base"
     pagecolor="#ffffff"
     bordercolor="#666666"
     borderopacity="1.0"
     inkscape:pageopacity="0.0"
     inkscape:pageshadow="2"
     inkscape:zoom="0.35355339"
     inkscape:cx="603.53161"
     inkscape:cy="399.11505"
     inkscape:document-units="mm"
     inkscape:current-layer="layer1"
     showgrid="false"
     borderlayer="true"
     inkscape:window-width="1366"
     inkscape:window-height="721"
     inkscape:window-x="0"
     inkscape:window-y="0"
     inkscape:window-maximized="1" />
  <metadata
     id="metadata5">
    <rdf:RDF>
      <cc:Work
         rdf:about="">
        <dc:format>image/svg+xml</dc:format>
        <dc:type
           rdf:resource="http://purl.org/dc/dcmitype/StillImage" />
        <dc:title></dc:title>
      </cc:Work>
    </rdf:RDF>
  </metadata>
  <g
     inkscape:label="Layer 1"
     inkscape:groupmode="layer"
     id="layer1">
    <rect
       style="opacity:1;fill:#edaccf;fill-opacity:1;stroke:#df6eaf;stroke-width:15;stroke-linecap:round;stroke-miterlimit:4;stroke-dasharray:none;stroke-opacity:1;paint-order:normal"
       id="rect845"
       width="210.0014"
       height="297.0466"
       x="0"
       y="-0.046615116"
       rx="16.463804"
       ry="16.463804" />
    <path
       style="fill:#000000;stroke-width:0.10696153"
       d=""
       id="path1417"
       inkscape:connector-curvature="0" />
    <path
       style="fill:none;stroke:#80d1f5;stroke-width:2.414711;stroke-linecap:butt;stroke-linejoin:miter;stroke-miterlimit:4"
       inkscape:connector-curvature="0"
       d="m 96.865514,107.42415 c -2.581337,6.89315 -4.299467,12.33455 -5.15439,16.32419 -1.724793,8.39399 0.574932,16.27055 6.899175,23.62967 12.533501,14.60325 15.178181,25.64193 7.934051,33.11604 -2.29973,2.29972 -4.82942,3.2771 -7.589092,2.93214 -2.989643,-0.34495 -4.886916,-2.12724 -5.691819,-5.34686 -0.91989,-3.44959 -0.402452,-6.03678 1.552314,-7.76157 2.069752,-1.83978 4.656941,-1.49482 7.761567,1.03488"
       stroke-miterlimit="4"
       id="path17"
       sodipodi:nodetypes="cccccccc" />
    <path
       style="fill:none;stroke:#fdf6ae;stroke-width:2.414711;stroke-linecap:butt;stroke-linejoin:miter;stroke-miterlimit:4"
       inkscape:connector-curvature="0"
       d="m 139.66039,168.59297 q -10.17629,11.55612 -12.76348,21.90488 -3.2771,13.45339 4.48447,28.45909 8.45149,16.21306 7.41661,28.28662 -1.20736,12.07355 -10.8662,11.21116 -6.7267,-0.51744 -10.0038,-7.76157 -3.10463,-7.07166 -0.17248,-14.14331"
       stroke-miterlimit="4"
       id="path19" />
    <path
       style="fill:none;stroke:#fdf6ae;stroke-width:2.414711;stroke-linecap:butt;stroke-linejoin:miter;stroke-miterlimit:4"
       inkscape:connector-curvature="0"
       d="m 71.013601,178.25181 q 8.968927,5.17438 11.038679,12.93596 1.897273,6.38173 -0.344958,17.59289 -2.75967,13.10843 1.552314,23.28471 5.174381,12.24604 17.765374,6.03678 8.45149,-4.1395 6.38174,-15.0057 -2.06976,-10.69372 -12.246038,-12.41852"
       stroke-miterlimit="4"
       id="path21" />
    <path
       style="fill:#fdf6ae;stroke-width:0.17247936"
       inkscape:connector-curvature="0"
       d="m 107.40675,44.925269 c 4.48446,5.519339 7.12914,12.5335 7.93405,21.042481 0.68991,6.784189 -0.0575,12.993446 -2.24223,18.627771 -2.18474,5.51934 -5.15708,9.817095 -9.1816,12.231805 l 5.38705,15.192414 -18.97273,-4.13951 4.311984,-9.658839 C 89.583879,97.64646 84.892326,94.45838 81.09778,89.054026 77.303234,83.649673 75.268092,77.351388 74.463188,69.762296 c -0.804903,-8.393995 0.517439,-15.753115 3.967026,-22.077358 3.449587,-6.324243 7.991543,-9.77383 13.625869,-10.348761 5.634325,-0.459945 10.751217,2.069752 15.350667,7.589092"
       id="path23"
       sodipodi:nodetypes="cccccccscscc" />
    <path
       style="fill:#80d1f5;stroke-width:0.17247936"
       inkscape:connector-curvature="0"
       d="m 128.10427,150.48264 q -2.06975,-9.65885 1.72479,-20.52505 3.96703,-12.07355 12.591,-18.62777 8.62396,-6.55421 16.73049,-3.79454 8.10653,2.75967 10.8662,13.28091 2.75967,10.34876 -1.37983,22.42231 -3.27711,9.65885 -9.83132,16.04058 -6.38174,6.20926 -13.28092,6.89918 l 0.34496,15.52314 -20.35256,-6.55421 11.03868,-10.8662 q -6.55422,-3.96703 -8.45149,-13.79835"
       id="path25" />
    <path
       style="fill:#80d1f5;stroke-width:0.17247936"
       inkscape:connector-curvature="0"
       d="m 40.312275,142.37611 q -3.104628,-12.24604 0.517438,-22.42232 3.622067,-10.17628 11.728597,-12.41851 8.279009,-2.06976 16.385539,5.17438 7.93405,7.24413 11.211158,19.49016 2.587191,9.83133 0.517438,18.80025 -1.897273,8.62397 -7.244133,13.10844 l 6.726695,11.55611 -18.627771,8.45149 3.277108,-16.7305 q -7.589092,0.17248 -14.488266,-6.89917 -7.071654,-7.07165 -10.003803,-18.11033"
       id="path27" />
  </g>
</svg>
