<?xml version="1.0" encoding="UTF-8" standalone="no"?>
<!-- Created with Inkscape (http://www.inkscape.org/) -->

<svg
   xmlns:dc="http://purl.org/dc/elements/1.1/"
   xmlns:cc="http://creativecommons.org/ns#"
   xmlns:rdf="http://www.w3.org/1999/02/22-rdf-syntax-ns#"
   xmlns:svg="http://www.w3.org/2000/svg"
   xmlns="http://www.w3.org/2000/svg"
   xmlns:sodipodi="http://sodipodi.sourceforge.net/DTD/sodipodi-0.dtd"
   xmlns:inkscape="http://www.inkscape.org/namespaces/inkscape"
   width="210mm"
   height="297mm"
   viewBox="0 0 210 297"
   version="1.1"
   id="svg8"
   inkscape:version="0.92.2 5c3e80d, 2017-08-06"
   sodipodi:docname="backn2.svg"
   inkscape:export-filename="/home/gurtos/data/Dokumenty/Pomysły/Pony Drinking Game/backn2.png"
   inkscape:export-xdpi="100"
   inkscape:export-ydpi="100">
  <defs
     id="defs2" />
  <sodipodi:namedview
     id="base"
     pagecolor="#ffffff"
     bordercolor="#666666"
     borderopacity="1.0"
     inkscape:pageopacity="0.0"
     inkscape:pageshadow="2"
     inkscape:zoom="0.25"
     inkscape:cx="571.18809"
     inkscape:cy="445.62853"
     inkscape:document-units="mm"
     inkscape:current-layer="layer1"
     showgrid="false"
     borderlayer="true"
     inkscape:window-width="1366"
     inkscape:window-height="721"
     inkscape:window-x="0"
     inkscape:window-y="0"
     inkscape:window-maximized="1" />
  <metadata
     id="metadata5">
    <rdf:RDF>
      <cc:Work
         rdf:about="">
        <dc:format>image/svg+xml</dc:format>
        <dc:type
           rdf:resource="http://purl.org/dc/dcmitype/StillImage" />
        <dc:title />
      </cc:Work>
    </rdf:RDF>
  </metadata>
  <g
     inkscape:label="Layer 1"
     inkscape:groupmode="layer"
     id="layer1">
    <rect
       style="opacity:1;fill:#ffc261;fill-opacity:1;stroke:#f26f31;stroke-width:15;stroke-linecap:round;stroke-miterlimit:4;stroke-dasharray:none;stroke-opacity:1;paint-order:normal"
       id="rect845"
       width="210.0014"
       height="297.0466"
       x="0"
       y="-0.046615116"
       rx="16.463804"
       ry="16.463804" />
    <path
       style="fill:#000000;stroke-width:0.10696153"
       d=""
       id="path1417"
       inkscape:connector-curvature="0" />
    <g
       id="g27"
       transform="translate(-0.86251726,-0.19257463)">
      <path
         sodipodi:nodetypes="csscssc"
         inkscape:connector-curvature="0"
         id="path931"
         d="m 91.328021,103.27456 c -6.081618,-4.083822 -15.441023,-12.529243 -23.553059,-3.21989 -2.82929,3.24689 -5.904489,13.27838 0.506322,26.13641 4.735125,9.49713 16.268967,17.02123 33.318716,12.05892 17.047,2.94201 26.76183,-10.85994 27.80112,-24.70229 0.83936,-11.17943 -4.34716,-23.909523 -14.70475,-23.889428 -5.68276,0.01103 -14.02767,3.253277 -23.368349,13.616278 z"
         style="fill:#ea4040;fill-opacity:1;stroke:none;stroke-width:0.26458332px;stroke-linecap:butt;stroke-linejoin:miter;stroke-opacity:1" />
      <path
         sodipodi:nodetypes="cccc"
         inkscape:connector-curvature="0"
         id="path933"
         d="m 80.764061,77.792709 c -3.791211,0.839032 -5.098977,4.389867 -5.556249,5.953125 4.269209,0.526599 11.655147,9.670645 14.472238,12.258703 -1.165411,-5.967423 -3.455012,-16.372486 -8.915989,-18.211828 z"
         style="fill:#61ba50;fill-opacity:1;stroke:none;stroke-width:0.26458332px;stroke-linecap:butt;stroke-linejoin:miter;stroke-opacity:1" />
      <path
         sodipodi:nodetypes="ccc"
         inkscape:connector-curvature="0"
         id="path935"
         d="m 90.457371,93.260438 c 11.970469,3.277365 12.639489,-6.439201 12.815569,-17.3057 -9.780554,1.21471 -12.319853,8.415524 -12.815569,17.3057 z"
         style="fill:#61ba50;fill-opacity:1;stroke:none;stroke-width:0.26458332px;stroke-linecap:butt;stroke-linejoin:miter;stroke-opacity:1" />
      <path
         sodipodi:nodetypes="cscsc"
         inkscape:connector-curvature="0"
         id="path937"
         d="m 62.419942,182.06027 c 4.542191,-5.28592 11.622421,-14.80558 20.791515,-14.44152 18.498793,0.7345 14.911085,55.45209 -15.824559,49.10726 -5.240702,3.32511 -15.931972,8.75161 -26.773357,-0.15934 -17.971666,-14.7716 -19.716393,-56.18354 21.806401,-34.5064 z"
         style="fill:#ea4040;fill-opacity:1;stroke:none;stroke-width:0.26458332px;stroke-linecap:butt;stroke-linejoin:miter;stroke-opacity:1" />
      <path
         sodipodi:nodetypes="ccc"
         inkscape:connector-curvature="0"
         id="path939"
         d="m 59.681284,177.1697 c -8.676151,-3.47337 -18.083668,-8.16067 -11.318864,-20.29911 8.001387,3.552 9.122762,12.27126 11.318864,20.29911 z"
         style="fill:#61ba50;fill-opacity:1;stroke:none;stroke-width:0.26458332px;stroke-linecap:butt;stroke-linejoin:miter;stroke-opacity:1" />
      <path
         sodipodi:nodetypes="cccc"
         inkscape:connector-curvature="0"
         id="path941"
         d="m 60.986458,174.7625 c -2.922085,-10.08877 -4.521256,-20.11741 -3.571875,-30.03021 5.674118,-0.98019 7.816958,1.25664 9.458854,3.90261 -4.067264,4.27274 -4.960687,19.86827 -5.886979,26.1276 z"
         style="fill:#61ba50;fill-opacity:1;stroke:none;stroke-width:0.26458332px;stroke-linecap:butt;stroke-linejoin:miter;stroke-opacity:1" />
      <path
         sodipodi:nodetypes="ccsc"
         inkscape:connector-curvature="0"
         id="path943"
         d="m 155.17812,163.78229 c -30.44687,-44.06175 -49.45289,42.47248 -12.17083,39.42292 3.93385,3.01829 9.04084,3.37956 13.33502,2.45665 24.17335,-5.19537 46.28759,-61.36787 -1.16419,-41.87957 z"
         style="fill:#ea4040;fill-opacity:1;stroke:none;stroke-width:0.26458332px;stroke-linecap:butt;stroke-linejoin:miter;stroke-opacity:1" />
      <path
         sodipodi:nodetypes="cccc"
         inkscape:connector-curvature="0"
         id="path945"
         d="m 155.97187,161.07031 c 1.02662,-6.13212 2.41124,-19.26016 -4.49791,-22.9526 -3.66674,0.16951 -4.97339,1.99403 -5.68855,4.23333 5.38768,2.26263 7.75148,12.87463 10.18646,18.71927 z"
         style="fill:#61ba50;fill-opacity:1;stroke:none;stroke-width:0.26458332px;stroke-linecap:butt;stroke-linejoin:miter;stroke-opacity:1" />
      <path
         sodipodi:nodetypes="ccc"
         inkscape:connector-curvature="0"
         id="path947"
         d="m 175.41875,142.48333 c -0.49092,15.32537 -9.43827,16.16911 -17.26406,15.41198 3.0944,-8.78571 8.01981,-15.06034 17.26406,-15.41198 z"
         style="fill:#61ba50;fill-opacity:1;stroke:none;stroke-width:0.26458332px;stroke-linecap:butt;stroke-linejoin:miter;stroke-opacity:1" />
    </g>
  </g>
</svg>
