<?xml version="1.0" encoding="UTF-8" standalone="no"?>
<!-- Created with Inkscape (http://www.inkscape.org/) -->

<svg
   xmlns:dc="http://purl.org/dc/elements/1.1/"
   xmlns:cc="http://creativecommons.org/ns#"
   xmlns:rdf="http://www.w3.org/1999/02/22-rdf-syntax-ns#"
   xmlns:svg="http://www.w3.org/2000/svg"
   xmlns="http://www.w3.org/2000/svg"
   xmlns:sodipodi="http://sodipodi.sourceforge.net/DTD/sodipodi-0.dtd"
   xmlns:inkscape="http://www.inkscape.org/namespaces/inkscape"
   width="210mm"
   height="297mm"
   viewBox="0 0 210 297"
   version="1.1"
   id="svg8"
   inkscape:version="0.92.2 5c3e80d, 2017-08-06"
   sodipodi:docname="backn.svg">
  <defs
     id="defs2" />
  <sodipodi:namedview
     id="base"
     pagecolor="#ffffff"
     bordercolor="#666666"
     borderopacity="1.0"
     inkscape:pageopacity="0.0"
     inkscape:pageshadow="2"
     inkscape:zoom="0.25"
     inkscape:cx="288.85271"
     inkscape:cy="334.65218"
     inkscape:document-units="mm"
     inkscape:current-layer="layer1"
     showgrid="false"
     borderlayer="true"
     inkscape:window-width="1366"
     inkscape:window-height="721"
     inkscape:window-x="0"
     inkscape:window-y="0"
     inkscape:window-maximized="1" />
  <metadata
     id="metadata5">
    <rdf:RDF>
      <cc:Work
         rdf:about="">
        <dc:format>image/svg+xml</dc:format>
        <dc:type
           rdf:resource="http://purl.org/dc/dcmitype/StillImage" />
        <dc:title></dc:title>
      </cc:Work>
    </rdf:RDF>
  </metadata>
  <g
     inkscape:label="Layer 1"
     inkscape:groupmode="layer"
     id="layer1">
    <rect
       style="opacity:1;fill:#ffffff;fill-opacity:1;stroke:none;stroke-width:15;stroke-linecap:round;stroke-miterlimit:4;stroke-dasharray:none;stroke-opacity:1;paint-order:normal"
       id="rect899"
       width="210.0014"
       height="297.0466"
       x="0"
       y="-0.046615116"
       rx="15.119059"
       ry="0.043989889" />
    <rect
       style="opacity:1;fill:#ddabf0;fill-opacity:1;stroke:#ffffff;stroke-width:15;stroke-linecap:round;stroke-miterlimit:4;stroke-dasharray:none;stroke-opacity:1;paint-order:normal"
       id="rect845"
       width="210.0014"
       height="297.0466"
       x="0"
       y="-0.046615116"
       rx="16.463804"
       ry="16.463804" />
    <path
       style="fill:#000000;stroke-width:0.10696153"
       d=""
       id="path1417"
       inkscape:connector-curvature="0" />
    <path
       style="fill:#ffffff;fill-opacity:1;stroke:none;stroke-width:0.097681px;stroke-linecap:butt;stroke-linejoin:miter;stroke-opacity:1"
       d="m 81.69774,103.63533 30.49581,27.30074 17.82563,-30.13673 -8.86529,34.51254 36.57753,10.7576 -34.55415,6.96452 14.61726,41.20045 -27.19112,-42.54305 -16.085554,39.57495 6.053244,-43.25594 -32.562789,-2.97941 35.144359,-5.04439 z"
       id="path1459"
       inkscape:connector-curvature="0"
       sodipodi:nodetypes="ccccccccccccc" />
    <path
       style="fill:#ff569f;fill-opacity:1;stroke:none;stroke-width:0.097681px;stroke-linecap:butt;stroke-linejoin:miter;stroke-opacity:1"
       d="m 108.10913,56.033889 15.98498,65.321331 38.08766,-8.48585 -29.20712,33.15403 25.65491,33.74606 -36.41023,-12.18607 -8.97922,68.8242 L 99.475266,166.646 59.093463,182.50763 89.662292,144.08483 49.207509,102.71754 98.43921,123.52602 Z"
       id="path1457"
       inkscape:connector-curvature="0"
       sodipodi:nodetypes="ccccccccccccc" />
    <path
       style="fill:#ffffff;fill-opacity:1;stroke:none;stroke-width:0.097681px;stroke-linecap:butt;stroke-linejoin:miter;stroke-opacity:1"
       d="m 154.50996,52.407669 3.78869,15.217273 9.31012,-2.118471 -7.20311,7.99249 6.11772,7.795142 -8.71211,-2.780277 -2.18226,16.199767 -3.25284,-16.367334 -9.70693,3.638555 7.35112,-9.003888 -9.62059,-9.694593 11.64338,4.884299 z"
       id="path5150"
       inkscape:connector-curvature="0"
       sodipodi:nodetypes="ccccccccccccc" />
    <path
       style="fill:#ffffff;fill-opacity:1;stroke:none;stroke-width:0.097681px;stroke-linecap:butt;stroke-linejoin:miter;stroke-opacity:1"
       d="m 165.23244,167.6687 4.38031,21.66337 10.72535,-2.97315 -8.28333,11.1816 7.16697,11.20653 -10.12567,-4.0555 -2.52052,22.96375 -3.78514,-23.21668 -11.21588,5.18058 8.44244,-12.7683 -11.16356,-13.67534 13.60558,6.7679 z"
       id="path5152"
       inkscape:connector-curvature="0"
       sodipodi:nodetypes="ccccccccccccc" />
    <path
       sodipodi:nodetypes="ccccccccccccc"
       inkscape:connector-curvature="0"
       id="path5154"
       d="m 81.504736,194.19169 3.138423,17.35521 7.809707,-2.42431 -6.07888,9.1076 5.173014,8.84796 -7.237185,-3.16409 -1.826956,18.36977 -2.778724,-18.53222 -8.192413,4.21631 6.272785,-10.27576 -8.081819,-10.98343 9.742875,5.38494 z"
       style="fill:#ffffff;fill-opacity:1;stroke:none;stroke-width:0.0762104px;stroke-linecap:butt;stroke-linejoin:miter;stroke-opacity:1" />
    <path
       style="fill:#ffffff;fill-opacity:1;stroke:none;stroke-width:0.097681px;stroke-linecap:butt;stroke-linejoin:miter;stroke-opacity:1"
       d="m 39.741278,135.34208 4.205925,17.31706 10.286629,-2.39281 -7.943153,8.92987 6.857753,8.92988 -9.759876,-3.18941 -2.313079,18.41417 -3.714678,-18.62897 -10.853997,4.29227 8.236178,-10.29385 -10.716873,-11.02408 13.08801,5.48096 z"
       id="path5156"
       inkscape:connector-curvature="0"
       sodipodi:nodetypes="ccccccccccccc" />
    <path
       style="fill:#ffffff;fill-opacity:1;stroke:none;stroke-width:0.097681px;stroke-linecap:butt;stroke-linejoin:miter;stroke-opacity:1"
       d="m 65.482521,41.775685 2.980617,14.139097 7.429353,-2.002354 -5.723016,7.351117 4.933634,7.351117 -7.02594,-2.665531 -1.706594,14.999619 -2.713499,-15.096926 -7.696471,3.404209 5.871025,-8.387179 -7.869147,-9.139561 9.546583,4.625284 z"
       id="path5158"
       inkscape:connector-curvature="0"
       sodipodi:nodetypes="ccccccccccccc" />
  </g>
</svg>
